<?xml version="1.0" standalone="no"?>
<!DOCTYPE svg PUBLIC "-//W3C//DTD SVG 20010904//EN"
 "http://www.w3.org/TR/2001/REC-SVG-20010904/DTD/svg10.dtd">
<svg version="1.0" xmlns="http://www.w3.org/2000/svg"
 width="723.000000pt" height="773.000000pt" viewBox="0 0 723.000000 773.000000"
 preserveAspectRatio="xMidYMid meet">
<metadata>
Created by potrace 1.16, written by Peter Selinger 2001-2019
</metadata>
<g transform="translate(0.000000,773.000000) scale(0.100000,-0.100000)"
fill="#000000" stroke="none">
<path d="M3974 6937 c-166 -265 -276 -568 -318 -871 l-13 -98 31 -11 c54 -18
218 -108 293 -159 40 -28 104 -83 143 -124 69 -73 70 -74 51 -93 -33 -33 -62
-45 -71 -30 -14 22 -68 -22 -57 -47 2 -6 -42 -33 -55 -34 -5 0 -8 9 -8 20 0
11 -5 20 -11 20 -5 0 -8 -4 -5 -9 3 -4 -6 -13 -19 -19 -14 -7 -25 -18 -25 -27
0 -11 -11 -15 -44 -15 -52 0 -76 -8 -76 -24 0 -6 -13 -17 -30 -23 -24 -9 -30
-9 -30 2 0 8 -7 11 -20 8 -13 -4 -19 -11 -16 -22 3 -9 15 -47 27 -86 35 -115
122 -280 239 -450 362 -529 387 -570 435 -740 38 -131 48 -223 42 -365 -9
-197 -43 -325 -109 -417 -56 -78 -55 -80 17 -29 475 335 701 586 839 929 71
176 99 320 99 502 0 158 -18 252 -77 402 -114 293 -232 480 -564 897 -271 340
-439 609 -572 919 -19 42 -36 77 -39 77 -3 0 -29 -37 -57 -83z"/>
<path d="M2475 4740 c-405 -44 -785 -250 -966 -526 -119 -179 -222 -444 -273
-697 -23 -112 -49 -295 -76 -522 -56 -472 -126 -770 -259 -1102 l-21 -53 21 0
c33 0 205 46 319 85 208 72 516 241 659 363 l35 29 -31 79 c-71 181 -94 285
-94 438 -1 128 4 149 34 140 12 -4 35 -18 51 -31 16 -13 35 -22 43 -19 28 11
63 -5 63 -29 0 -16 8 -25 27 -29 15 -4 29 -3 33 4 9 15 60 2 60 -16 0 -8 10
-15 23 -15 21 -2 38 -3 80 -7 10 -1 17 -10 17 -22 0 -11 5 -20 11 -20 6 0 18
-8 27 -17 16 -16 17 -15 20 1 2 10 13 27 24 38 26 26 79 141 111 243 32 100
51 191 123 608 43 254 63 325 116 430 65 131 129 217 235 316 141 134 281 225
388 252 61 16 47 22 -95 43 -63 10 -140 22 -170 27 -76 14 -437 20 -535 9z"/>
<path d="M3375 4395 c-295 -80 -490 -348 -472 -649 9 -162 70 -298 182 -411
116 -115 250 -174 420 -182 190 -9 335 47 471 182 66 65 89 98 122 166 51 108
66 172 65 284 -1 192 -82 362 -230 486 -59 49 -190 113 -261 128 -72 15 -236
13 -297 -4z"/>
<path d="M2630 3568 c0 -7 -7 -51 -15 -98 -37 -206 -47 -319 -47 -530 0 -223
8 -299 52 -462 75 -283 253 -559 454 -702 249 -177 608 -293 1076 -346 608
-69 882 -127 1219 -259 58 -22 106 -39 108 -37 7 7 -38 190 -77 308 -73 219
-250 547 -368 678 l-37 41 -109 -41 c-175 -67 -283 -85 -485 -81 l-64 1 6 35
c3 19 15 44 26 57 12 12 22 36 22 52 2 28 3 27 9 -9 6 -34 15 -23 11 13 -1 7
7 26 19 42 12 16 23 49 26 72 3 24 9 57 13 73 5 17 9 40 9 53 1 23 42 85 42
63 0 -18 17 -4 23 19 18 68 -339 189 -733 250 -334 51 -469 84 -586 141 -114
56 -191 111 -295 214 -145 143 -236 278 -273 408 -16 54 -26 72 -26 45z"/>
</g>
</svg>
